<svg height="600" width="600" xmlns="http://www.w3.org/2000/svg">
	<path d="m304 110c20 26 18 56 34 86-5 39-16 55-25 95 31-19 58-44 77-53 25-1 67-3 92 0-40 36-73 59-102 81 11 55 24 81 37 130-36-21-75-50-105-72-44 18-78 54-116 73 35-120 68-218 104-333" fill="#e2e2e3" />
	<path d="m305 117c-35 109-69 217-104 326 34-24 66-47 99-72 41 19 73 48 110 72-12-40-25-79-37-119 31-32 70-56 102-81-28 0-58-1-87 0-28 19-52 40-79 57 5-34 17-65 25-97-10-30-19-57-28-84" fill="#fefefe" />
	<path d="m384 36c34 3 74-5 104 8-1 57 10 120-4 170-45-3-92 7-128-5 11-56-28-148 22-177" fill="#9d9e9e" />
	<path d="m366 39c-17 46-2 111-8 162 39 12 83 7 121 8 10-53 7-108 6-159-35-12-75-5-111-8" fill="#a1a2a2" />
	<path d="m372 51c33-1 66 0 98-1 12 13 5 30 8 44-32 11-70 6-103 8-12-13-9-36-6-50" fill="#525354" />
	<path d="m123 237c38-1 76 0 114-1-2 28-13 56-18 73-30-16-74-45-99-68" fill="#d1d1d1" />
	<path d="m373 55c-4 11-1 28-1 41 35 0 70 2 102 0-1-16 1-29-2-40-33 0-64 0-95 0" fill="#383839" />
	<path d="m126 242c28 21 59 42 88 64 8-21 15-43 21-63-36-2-70-1-106-2" fill="#fefefe" />
	<path d="m446 58c27-12 31 20 22 35-10 1-21 4-26-2-1-12-7-27 3-33" fill="#8d8d8e" />
	<path d="m451 112c14-5 34-1 25 19-13 10-41 2-26-19" fill="#656566" />
	<path d="m451 178c12-2 32-3 26 16-9 16-43 6-27-16" fill="#646566" />
	<path d="m411 111c12-3 32-2 26 17-11 14-42 6-27-16" fill="#656566" />
	<path d="m371 111c12-3 33-2 26 17-11 14-42 5-27-16" fill="#646566" />
	<path d="m371 178c12-3 33-2 26 17-12 15-42 4-27-17" fill="#646565" />
	<path d="m453 145c13-6 31 1 23 18-15 12-43 0-24-20" fill="#636464" />
	<path d="m373 144c13-3 30 0 24 18-14 14-44 1-25-19" fill="#636364" />
	<path d="m411 178c12-3 33-2 26 17-11 15-42 4-27-17" fill="#646565" />
	<path d="m413 145c13-6 31 1 23 19-15 11-42-1-24-21" fill="#636364" />
	<path d="m446 62c-5 14-4 38 19 26 3-13 5-33-18-24" fill="#a3a4a4" />
	<path d="m447 65c19-9 20 12 16 23-19 6-17-11-16-22" fill="#828283" />
	<g fill="#18191a">
		<path d="m376 146c-15 15 7 24 17 15 4-14-7-15-16-13" />
		<path d="m455 146c-12 15 4 22 17 16 6-13-6-17-16-14" />
		<path d="m374 180c-12 16 11 23 19 14 4-15-10-13-17-12" />
		<path d="m454 180c-10 16 7 22 18 15 7-14-8-15-17-13" />
		<path d="m415 146c-12 15 4 22 17 16 5-14-5-17-16-14" />
		<path d="m414 180c-10 15 5 22 17 16 7-14-4-17-16-14" />
		<path d="m453 115c-8 16 8 19 19 14 7-15-8-15-18-13" />
		<path d="m413 115c-8 16 8 19 19 14 6-16-8-14-18-13" />
		<path d="m374 114c-10 16 7 20 18 15 5-16-7-14-17-13" />
		<path d="m452 66c-8 32 21 11 1 0" />
	</g>
</svg>
